<svg fill="#000000" xmlns="http://www.w3.org/2000/svg"  viewBox="0 0 64 64" width="48px" height="48px"><path d="M53.854,41.708c0.306,0.98,0.167,2.01-0.77,2.958c-1.495,1.512-4.103,1.89-4.433,2.201c-0.33,0.312-0.475,1.495-1.526,2.171	c-1.052,0.676-2.349,0.659-3.014,0.709c-2.677,0.204-3.378,0.328-5.047,1.393c-0.539,0.344-3.187,2.16-7.064,2.16	s-6.525-1.816-7.064-2.16c-1.669-1.065-2.37-1.189-5.047-1.393c-0.665-0.051-1.962-0.033-3.014-0.709	c-1.052-0.676-1.197-1.86-1.526-2.171c-0.33-0.312-2.938-0.689-4.433-2.201c-0.937-0.948-1.075-1.978-0.77-2.958	c0.402-1.289,1.812-1.735,2.627-2.201c4.464-2.555,5.179-4.996,5.391-5.358c0.085-0.146,0.295-0.631-0.18-1.018	c-0.439-0.358-2.781-1.497-3.766-3.212c-0.511-0.89-0.646-2.247-0.185-3.194c0.738-1.516,1.96-2.399,3.654-2.399	c0.62,0,1.247,0.159,1.337,0.181c0.034-0.977,0.036-2.109,0.099-3.13C19.385,17.11,22.966,10,32,10s12.615,7.11,12.877,11.376	c0.063,1.021,0.065,2.153,0.099,3.13c0.09-0.021,0.717-0.181,1.337-0.181c1.694,0,2.917,0.884,3.654,2.399	c0.461,0.948,0.327,2.304-0.185,3.194c-0.986,1.715-3.328,2.854-3.766,3.212c-0.475,0.388-0.265,0.873-0.18,1.018	c0.211,0.361,0.926,2.803,5.391,5.358C52.042,39.973,53.452,40.42,53.854,41.708z"/></svg>